solid OpenSCAD_Model
  facet normal 0 0 -1
    outer loop
      vertex -12.5 -38.5 0
      vertex 87.5 38.5 0
      vertex 87.5 -38.5 0
    endloop
  endfacet
  facet normal -0 0 -1
    outer loop
      vertex 87.5 38.5 0
      vertex -12.5 -38.5 0
      vertex -12.5 38.5 0
    endloop
  endfacet
  facet normal -1 0 0
    outer loop
      vertex -12.5 -38.5 0
      vertex -12.5 38.5 7
      vertex -12.5 38.5 0
    endloop
  endfacet
  facet normal -1 -0 0
    outer loop
      vertex -12.5 38.5 7
      vertex -12.5 -38.5 0
      vertex -12.5 -38.5 7
    endloop
  endfacet
  facet normal 0 -1 0
    outer loop
      vertex -12.5 -38.5 0
      vertex 87.5 -38.5 7
      vertex -12.5 -38.5 7
    endloop
  endfacet
  facet normal 0 -1 -0
    outer loop
      vertex 87.5 -38.5 7
      vertex -12.5 -38.5 0
      vertex 87.5 -38.5 0
    endloop
  endfacet
  facet normal 0 1 -0
    outer loop
      vertex 87.5 38.5 0
      vertex -12.5 38.5 7
      vertex 87.5 38.5 7
    endloop
  endfacet
  facet normal 0 1 0
    outer loop
      vertex -12.5 38.5 7
      vertex 87.5 38.5 0
      vertex -12.5 38.5 0
    endloop
  endfacet
  facet normal -0 0 1
    outer loop
      vertex 8 34.5 2
      vertex 10 -34.5 2
      vertex 10 34.5 2
    endloop
  endfacet
  facet normal 0 0 1
    outer loop
      vertex 10 -34.5 2
      vertex 8 34.5 2
      vertex 8 -34.5 2
    endloop
  endfacet
  facet normal 0 0 1
    outer loop
      vertex 87.5 38.5 7
      vertex 85 34.5 7
      vertex 87.5 -38.5 7
    endloop
  endfacet
  facet normal 0 0 1
    outer loop
      vertex 87.5 38.5 7
      vertex 83 34.5 7
      vertex 85 34.5 7
    endloop
  endfacet
  facet normal 0 0 1
    outer loop
      vertex 83 34.5 7
      vertex 60 34.5 7
      vertex 83 -34.5 7
    endloop
  endfacet
  facet normal 0 0 1
    outer loop
      vertex 87.5 38.5 7
      vertex 60 34.5 7
      vertex 83 34.5 7
    endloop
  endfacet
  facet normal 0 0 1
    outer loop
      vertex 87.5 38.5 7
      vertex 58 34.5 7
      vertex 60 34.5 7
    endloop
  endfacet
  facet normal 0 0 1
    outer loop
      vertex 58 34.5 7
      vertex 35 34.5 7
      vertex 58 -34.5 7
    endloop
  endfacet
  facet normal 0 0 1
    outer loop
      vertex 87.5 38.5 7
      vertex 35 34.5 7
      vertex 58 34.5 7
    endloop
  endfacet
  facet normal -0 0 1
    outer loop
      vertex -12.5 38.5 7
      vertex 35 34.5 7
      vertex 87.5 38.5 7
    endloop
  endfacet
  facet normal 0 0 1
    outer loop
      vertex 33 34.5 7
      vertex 10 34.5 7
      vertex 33 -34.5 7
    endloop
  endfacet
  facet normal 0 0 1
    outer loop
      vertex 35 34.5 7
      vertex -12.5 38.5 7
      vertex 33 34.5 7
    endloop
  endfacet
  facet normal 0 0 1
    outer loop
      vertex 33 34.5 7
      vertex -12.5 38.5 7
      vertex 10 34.5 7
    endloop
  endfacet
  facet normal 0 0 1
    outer loop
      vertex 8 34.5 7
      vertex -12.5 38.5 7
      vertex 8 -34.5 7
    endloop
  endfacet
  facet normal 0 0 1
    outer loop
      vertex 10 34.5 7
      vertex -12.5 38.5 7
      vertex 8 34.5 7
    endloop
  endfacet
  facet normal -0 0 1
    outer loop
      vertex 85 -34.5 7
      vertex 87.5 -38.5 7
      vertex 85 34.5 7
    endloop
  endfacet
  facet normal -0 0 1
    outer loop
      vertex 83 -34.5 7
      vertex 87.5 -38.5 7
      vertex 85 -34.5 7
    endloop
  endfacet
  facet normal 0 0 1
    outer loop
      vertex 60 -34.5 7
      vertex 83 -34.5 7
      vertex 60 34.5 7
    endloop
  endfacet
  facet normal -0 0 1
    outer loop
      vertex 60 -34.5 7
      vertex 87.5 -38.5 7
      vertex 83 -34.5 7
    endloop
  endfacet
  facet normal -0 0 1
    outer loop
      vertex 58 -34.5 7
      vertex 87.5 -38.5 7
      vertex 60 -34.5 7
    endloop
  endfacet
  facet normal 0 0 1
    outer loop
      vertex 35 -34.5 7
      vertex 58 -34.5 7
      vertex 35 34.5 7
    endloop
  endfacet
  facet normal -0 0 1
    outer loop
      vertex 35 -34.5 7
      vertex 87.5 -38.5 7
      vertex 58 -34.5 7
    endloop
  endfacet
  facet normal 0 0 1
    outer loop
      vertex -12.5 -38.5 7
      vertex 35 -34.5 7
      vertex 33 -34.5 7
    endloop
  endfacet
  facet normal 0 0 1
    outer loop
      vertex 10 -34.5 7
      vertex 33 -34.5 7
      vertex 10 34.5 7
    endloop
  endfacet
  facet normal 0 0 1
    outer loop
      vertex -12.5 -38.5 7
      vertex 33 -34.5 7
      vertex 10 -34.5 7
    endloop
  endfacet
  facet normal 0 0 1
    outer loop
      vertex -12.5 -38.5 7
      vertex 10 -34.5 7
      vertex 8 -34.5 7
    endloop
  endfacet
  facet normal 0 0 1
    outer loop
      vertex 35 -34.5 7
      vertex -12.5 -38.5 7
      vertex 87.5 -38.5 7
    endloop
  endfacet
  facet normal 0 0 1
    outer loop
      vertex -12.5 -38.5 7
      vertex 8 -34.5 7
      vertex -12.5 38.5 7
    endloop
  endfacet
  facet normal 1 -0 0
    outer loop
      vertex 8 -34.5 7
      vertex 8 34.5 2
      vertex 8 34.5 7
    endloop
  endfacet
  facet normal 1 0 0
    outer loop
      vertex 8 34.5 2
      vertex 8 -34.5 7
      vertex 8 -34.5 2
    endloop
  endfacet
  facet normal 0 -1 0
    outer loop
      vertex 8 34.5 2
      vertex 10 34.5 7
      vertex 8 34.5 7
    endloop
  endfacet
  facet normal 0 -1 -0
    outer loop
      vertex 10 34.5 7
      vertex 8 34.5 2
      vertex 10 34.5 2
    endloop
  endfacet
  facet normal -1 0 0
    outer loop
      vertex 10 -34.5 2
      vertex 10 34.5 7
      vertex 10 34.5 2
    endloop
  endfacet
  facet normal -1 -0 0
    outer loop
      vertex 10 34.5 7
      vertex 10 -34.5 2
      vertex 10 -34.5 7
    endloop
  endfacet
  facet normal 0 1 -0
    outer loop
      vertex 10 -34.5 2
      vertex 8 -34.5 7
      vertex 10 -34.5 7
    endloop
  endfacet
  facet normal 0 1 0
    outer loop
      vertex 8 -34.5 7
      vertex 10 -34.5 2
      vertex 8 -34.5 2
    endloop
  endfacet
  facet normal -0 0 1
    outer loop
      vertex 33 34.5 2
      vertex 35 -34.5 2
      vertex 35 34.5 2
    endloop
  endfacet
  facet normal 0 0 1
    outer loop
      vertex 35 -34.5 2
      vertex 33 34.5 2
      vertex 33 -34.5 2
    endloop
  endfacet
  facet normal 1 -0 0
    outer loop
      vertex 33 -34.5 7
      vertex 33 34.5 2
      vertex 33 34.5 7
    endloop
  endfacet
  facet normal 1 0 0
    outer loop
      vertex 33 34.5 2
      vertex 33 -34.5 7
      vertex 33 -34.5 2
    endloop
  endfacet
  facet normal 0 -1 0
    outer loop
      vertex 33 34.5 2
      vertex 35 34.5 7
      vertex 33 34.5 7
    endloop
  endfacet
  facet normal 0 -1 -0
    outer loop
      vertex 35 34.5 7
      vertex 33 34.5 2
      vertex 35 34.5 2
    endloop
  endfacet
  facet normal -1 0 0
    outer loop
      vertex 35 -34.5 2
      vertex 35 34.5 7
      vertex 35 34.5 2
    endloop
  endfacet
  facet normal -1 -0 0
    outer loop
      vertex 35 34.5 7
      vertex 35 -34.5 2
      vertex 35 -34.5 7
    endloop
  endfacet
  facet normal 0 1 -0
    outer loop
      vertex 35 -34.5 2
      vertex 33 -34.5 7
      vertex 35 -34.5 7
    endloop
  endfacet
  facet normal 0 1 0
    outer loop
      vertex 33 -34.5 7
      vertex 35 -34.5 2
      vertex 33 -34.5 2
    endloop
  endfacet
  facet normal -0 0 1
    outer loop
      vertex 58 34.5 2
      vertex 60 -34.5 2
      vertex 60 34.5 2
    endloop
  endfacet
  facet normal 0 0 1
    outer loop
      vertex 60 -34.5 2
      vertex 58 34.5 2
      vertex 58 -34.5 2
    endloop
  endfacet
  facet normal 1 -0 0
    outer loop
      vertex 58 -34.5 7
      vertex 58 34.5 2
      vertex 58 34.5 7
    endloop
  endfacet
  facet normal 1 0 0
    outer loop
      vertex 58 34.5 2
      vertex 58 -34.5 7
      vertex 58 -34.5 2
    endloop
  endfacet
  facet normal 0 -1 0
    outer loop
      vertex 58 34.5 2
      vertex 60 34.5 7
      vertex 58 34.5 7
    endloop
  endfacet
  facet normal 0 -1 -0
    outer loop
      vertex 60 34.5 7
      vertex 58 34.5 2
      vertex 60 34.5 2
    endloop
  endfacet
  facet normal -1 0 0
    outer loop
      vertex 60 -34.5 2
      vertex 60 34.5 7
      vertex 60 34.5 2
    endloop
  endfacet
  facet normal -1 -0 0
    outer loop
      vertex 60 34.5 7
      vertex 60 -34.5 2
      vertex 60 -34.5 7
    endloop
  endfacet
  facet normal 0 1 -0
    outer loop
      vertex 60 -34.5 2
      vertex 58 -34.5 7
      vertex 60 -34.5 7
    endloop
  endfacet
  facet normal 0 1 0
    outer loop
      vertex 58 -34.5 7
      vertex 60 -34.5 2
      vertex 58 -34.5 2
    endloop
  endfacet
  facet normal 1 -0 0
    outer loop
      vertex 87.5 -38.5 7
      vertex 87.5 38.5 0
      vertex 87.5 38.5 7
    endloop
  endfacet
  facet normal 1 0 0
    outer loop
      vertex 87.5 38.5 0
      vertex 87.5 -38.5 7
      vertex 87.5 -38.5 0
    endloop
  endfacet
  facet normal -0 0 1
    outer loop
      vertex 83 34.5 2
      vertex 85 -34.5 2
      vertex 85 34.5 2
    endloop
  endfacet
  facet normal 0 0 1
    outer loop
      vertex 85 -34.5 2
      vertex 83 34.5 2
      vertex 83 -34.5 2
    endloop
  endfacet
  facet normal 1 -0 0
    outer loop
      vertex 83 -34.5 7
      vertex 83 34.5 2
      vertex 83 34.5 7
    endloop
  endfacet
  facet normal 1 0 0
    outer loop
      vertex 83 34.5 2
      vertex 83 -34.5 7
      vertex 83 -34.5 2
    endloop
  endfacet
  facet normal 0 -1 0
    outer loop
      vertex 83 34.5 2
      vertex 85 34.5 7
      vertex 83 34.5 7
    endloop
  endfacet
  facet normal 0 -1 -0
    outer loop
      vertex 85 34.5 7
      vertex 83 34.5 2
      vertex 85 34.5 2
    endloop
  endfacet
  facet normal -1 0 0
    outer loop
      vertex 85 -34.5 2
      vertex 85 34.5 7
      vertex 85 34.5 2
    endloop
  endfacet
  facet normal -1 -0 0
    outer loop
      vertex 85 34.5 7
      vertex 85 -34.5 2
      vertex 85 -34.5 7
    endloop
  endfacet
  facet normal 0 1 -0
    outer loop
      vertex 85 -34.5 2
      vertex 83 -34.5 7
      vertex 85 -34.5 7
    endloop
  endfacet
  facet normal 0 1 0
    outer loop
      vertex 83 -34.5 7
      vertex 85 -34.5 2
      vertex 83 -34.5 2
    endloop
  endfacet
endsolid OpenSCAD_Model
